<?xml version="1.0" encoding="utf-8"?>
<!-- Generator: Adobe Illustrator 27.3.1, SVG Export Plug-In . SVG Version: 6.00 Build 0)  -->
<svg version="1.1" id="Layer_1" xmlns="http://www.w3.org/2000/svg" xmlns:xlink="http://www.w3.org/1999/xlink" x="0px" y="0px"
	 viewBox="0 0 290 80" style="enable-background:new 0 0 290 80;" xml:space="preserve">
<style type="text/css">
	.st0{fill:#034422;}
	.st1{fill:#1DB702;}
</style>
<g>
	<path class="st0" d="M185.1,26.7c4.9,0,8.3,3.1,9.2,8.6h-18.5C177,29.8,180.3,26.7,185.1,26.7z M206.4,40.1
		c0-14.2-8.1-22.9-21-22.9c-13.2,0-22.2,9-22.2,22.1c0,13.9,9.6,22.8,24.6,22.8c6.1,0,11.9-1.6,16.2-4.3c0.7-0.4,0.9-1.2,0.6-2
		l-2.5-6.3c-0.4-1.2-1.6-1.6-2.7-0.9c-3.2,1.7-7.2,2.7-10.9,2.7c-7.1,0-11.9-3.2-12.8-8h29c0.9,0,1.7-0.8,1.7-1.7V40.1z M134.6,51.2
		c-6.1,0-10.3-4.7-10.3-11.6c0-7.1,4.1-11.9,10.3-11.9c6,0,10.2,4.8,10.2,11.9C144.7,46.4,140.6,51.2,134.6,51.2z M138.4,17.2
		c-5.7,0-10.4,2.2-14,6.4v-14c0-0.9-0.8-1.7-1.7-1.7h-9.1c-0.9,0-1.7,0.8-1.7,1.7v49.9c0,0.9,0.8,1.7,1.7,1.7h9.1
		c0.9,0,1.7-0.8,1.7-1.7v-4c3.5,4.3,8.3,6.6,14,6.6c11.4,0,19.5-9.2,19.5-22.6C158,26.3,149.9,17.2,138.4,17.2z M91.1,59.9
		c-4.1,10.4-10.9,16-19.5,16c-1.5,0-2.9-0.2-4.3-0.4c-0.8-0.2-1.2-0.9-1.2-1.6v-7.3c0-1.2,0.9-2,2.2-1.8c0.6,0.1,1.3,0.1,1.9,0.1
		c4.3,0,7-1.9,7.8-5.5L63.9,20.9c-0.5-1.5,0.3-2.7,1.8-2.7h10.1c0.7,0,1.4,0.4,1.6,1.1l7.5,25.7l8.4-25.7c0.2-0.7,0.9-1.1,1.6-1.1
		h9.9c1.5,0,2.3,1.4,1.8,2.8L91.1,59.9z M46.6,24.7c2.4-3.8,6-6.6,11.1-6.6c0.9,0,1.3,0.6,1.3,1.7v10.1c0,0.9-0.8,1.7-1.7,1.7h-4.2
		c-4.2,0-6.5,2.4-6.5,6.8v21c0,0.9-0.8,1.7-1.7,1.7h-9c-0.9,0-1.7-0.8-1.7-1.7V19.9c0-0.9,0.8-1.7,1.7-1.7h9c0.9,0,1.7,0.8,1.7,1.7
		V24.7z M17,9.6v8.6h10.2c0.9,0,1.7,0.8,1.7,1.7V27c0,0.9-0.8,1.7-1.7,1.7H17v15.8c0,3.6,2.2,5.5,6.4,5.5c0.9,0,2.1-0.1,3.2-0.3
		c1.3-0.3,2.3,0.6,2.3,1.9v7.1c0,0.8-0.5,1.5-1.4,1.6c-2.8,0.5-5.7,0.9-8,0.9c-9.2,0-15.1-5.1-15.1-12.9V9.6c0-0.9,0.8-1.7,1.7-1.7
		h9.1C16.3,7.8,17,8.6,17,9.6z"/>
	<g>
		<path class="st1" d="M255.6,34.4h-29.1c-2.6,0-3.5-3.4-1.3-4.7l43.7-25.2c2.2-1.3,4.7,1.2,3.4,3.4l-14.6,25.2
			C257.3,33.9,256.5,34.4,255.6,34.4z"/>
		<path class="st1" d="M285.5,14.1v50.4c0,2.6-3.4,3.5-4.7,1.3l-14.6-25.2c-0.4-0.8-0.4-1.7,0-2.5l14.6-25.2
			C282.1,10.6,285.5,11.5,285.5,14.1z"/>
		<path class="st1" d="M257.8,45.4l14.6,25.2c1.3,2.2-1.2,4.7-3.4,3.4l-43.7-25.2c-2.2-1.3-1.3-4.7,1.3-4.7h29.1
			C256.5,44.2,257.3,44.7,257.8,45.4z"/>
	</g>
</g>
</svg>
